<svg width="116" height="34" viewBox="0 0 116 34" fill="none" xmlns="http://www.w3.org/2000/svg">
<g clip-path="url(#clip0_1:471)">
<path d="M34.9353 14.5696C33.4016 12.9409 31.2684 12.1265 28.536 12.1265C27.0526 12.1097 25.5936 12.4995 24.3213 13.2526C23.0766 13.985 22.0392 15.0157 21.3053 16.2493C20.6575 14.9763 19.6503 13.9157 18.4053 13.1954C17.0976 12.4656 15.6152 12.0965 14.1133 12.1265C12.7508 12.0931 11.4036 12.4157 10.208 13.0618C9.1301 13.6626 8.2388 14.5425 7.63022 15.6067V12.3174H0V33.7201H7.61733V22.357C7.58431 21.8539 7.65463 21.3494 7.82407 20.8738C7.99351 20.3982 8.25857 19.9614 8.60333 19.5895C8.96099 19.2558 9.38367 18.9974 9.84565 18.83C10.3076 18.6627 10.7993 18.5899 11.2907 18.616C11.7634 18.5948 12.2355 18.6684 12.6786 18.8324C13.1217 18.9964 13.5265 19.2475 13.8684 19.5704C14.2048 19.9324 14.4629 20.3583 14.6268 20.8222C14.7908 21.286 14.8573 21.7779 14.8222 22.268V33.7201H22.4267V22.357C22.3936 21.8539 22.464 21.3494 22.6334 20.8738C22.8028 20.3982 23.0679 19.9614 23.4127 19.5895C23.7703 19.2558 24.193 18.9974 24.655 18.83C25.117 18.6627 25.6086 18.5899 26.1 18.616C26.5727 18.5948 27.0449 18.6684 27.4879 18.8324C27.931 18.9964 28.3358 19.2475 28.6778 19.5704C29.0164 19.9314 29.2769 20.3568 29.4431 20.8207C29.6093 21.2846 29.6778 21.777 29.6444 22.268V33.7201H37.236V21.2882C37.236 18.4379 36.4691 16.1984 34.9353 14.5696Z" fill="#150C26"/>
<path d="M57.3553 13.3608C59.0489 14.2192 60.4529 15.5456 61.396 17.1782C62.4037 18.9542 62.9111 20.9644 62.8653 22.9997C62.9161 25.0415 62.4086 27.0591 61.396 28.8402C60.4453 30.467 59.0433 31.7915 57.3553 32.6576C55.5412 33.5366 53.5472 33.9936 51.5263 33.9936C49.5055 33.9936 47.5115 33.5366 45.6973 32.6576C44.0011 31.7959 42.5918 30.4708 41.6373 28.8402C40.6248 27.0591 40.1172 25.0415 40.168 22.9997C40.1109 20.9672 40.6071 18.9568 41.6051 17.1782C42.5537 15.5431 43.9646 14.2165 45.6651 13.3608C47.4872 12.4892 49.4855 12.0364 51.5102 12.0364C53.5349 12.0364 55.5333 12.4892 57.3553 13.3608ZM48.8744 19.6849C48.1191 20.6247 47.7467 21.8092 47.8304 23.006C47.7426 24.2151 48.1149 25.4129 48.8744 26.3653C49.201 26.7347 49.6058 27.0287 50.0601 27.2266C50.5145 27.4245 51.0073 27.5214 51.5038 27.5105C51.9939 27.5164 52.4792 27.415 52.9249 27.2137C53.3706 27.0124 53.7656 26.7162 54.0816 26.3462C54.8354 25.3983 55.2073 24.2085 55.1256 23.006C55.2093 21.8092 54.8369 20.6247 54.0816 19.6849C53.7626 19.3198 53.3666 19.0281 52.9212 18.8302C52.4759 18.6324 51.9921 18.5332 51.5038 18.5397C51.0073 18.5288 50.5145 18.6257 50.0601 18.8236C49.6058 19.0215 49.201 19.3155 48.8744 19.6849Z" fill="#150C26"/>
<path d="M73.5055 12.3174V33.7201H65.8882V12.3174H73.5055Z" fill="#150C26"/>
<path d="M88.5469 13.2717C89.7798 12.5236 91.1984 12.1273 92.6455 12.1265V20.1429H90.4415C88.723 20.1429 87.447 20.4674 86.6135 21.1164C85.7801 21.7653 85.3504 22.8914 85.3247 24.4947V33.72H77.7202V12.3173H85.3375V16.3256C86.1591 15.0807 87.2565 14.0364 88.5469 13.2717Z" fill="#150C26"/>
<path d="M116 22.6242C116.042 20.6801 115.569 18.7588 114.627 17.0508C113.733 15.4697 112.388 14.1823 110.76 13.348C108.979 12.4876 107.021 12.0403 105.038 12.0403C103.054 12.0403 101.097 12.4876 99.3151 13.348C97.6587 14.21 96.2993 15.5387 95.4098 17.1653C94.4466 18.9623 93.9673 20.9735 94.0178 23.0059C93.9689 25.0443 94.448 27.0612 95.4098 28.8656C95.9083 29.7517 96.5505 30.5512 97.3109 31.2323C97.9199 31.8049 98.605 32.2929 99.3473 32.6829C101.107 33.5798 103.064 34.0322 105.044 33.9999C105.496 33.9992 105.948 33.9758 106.398 33.9299C107.629 33.806 108.831 33.4813 109.955 32.9692C111.4 32.3203 112.671 31.3464 113.667 30.1253C114.633 28.956 115.289 27.5675 115.574 26.0853H107.532C107.364 26.6529 107.011 27.1496 106.526 27.4977C105.983 27.8699 105.331 28.0575 104.67 28.0321C102.66 28.0321 101.586 26.8233 101.448 24.4056H115.806C115.931 23.8196 115.995 23.2229 116 22.6242ZM101.5 21.2499C101.531 20.3138 101.925 19.4253 102.602 18.7686C103.279 18.1944 104.152 17.8944 105.044 17.9288C105.898 17.9022 106.73 18.2032 107.364 18.7686C107.691 19.091 107.941 19.4806 108.097 19.9096C108.253 20.3386 108.311 20.7963 108.266 21.2499H101.5Z" fill="#150C26"/>
<path d="M65.8624 1.08792C66.7609 0.340183 67.9105 -0.0479912 69.0846 -3.31006e-05C70.2608 -0.0621908 71.4156 0.327723 72.3069 1.08792C72.6974 1.43628 73.0068 1.8641 73.2137 2.34189C73.4207 2.81967 73.5202 3.33608 73.5055 3.85551C73.5151 4.36208 73.4108 4.86445 73.2002 5.32649C72.9896 5.78852 72.6779 6.19875 72.2875 6.52766C71.39 7.27522 70.2379 7.65739 69.0653 7.59652C67.8945 7.64428 66.7471 7.26366 65.8431 6.52766C65.4478 6.20177 65.1315 5.79259 64.9173 5.33017C64.7032 4.86776 64.5968 4.36387 64.6058 3.85551C64.5947 3.33113 64.7017 2.81088 64.919 2.33228C65.1363 1.85368 65.4586 1.42867 65.8624 1.08792Z" fill="#E02D71"/>
<path d="M41.3732 1.08792C42.2716 0.340183 43.4213 -0.0479912 44.5954 -3.31006e-05C45.7715 -0.0621908 46.9263 0.327723 47.8176 1.08792C48.2082 1.43628 48.5176 1.8641 48.7245 2.34189C48.9314 2.81967 49.031 3.33608 49.0163 3.85551C49.0258 4.36208 48.9215 4.86445 48.7109 5.32649C48.5003 5.78852 48.1886 6.19875 47.7983 6.52766C46.9008 7.27522 45.7487 7.65739 44.5761 7.59652C43.4053 7.64428 42.2579 7.26366 41.3538 6.52766C40.9585 6.20177 40.6422 5.79259 40.4281 5.33017C40.214 4.86776 40.1075 4.36387 40.1165 3.85551C40.1055 3.33113 40.2125 2.81088 40.4298 2.33228C40.6471 1.85368 40.9693 1.42867 41.3732 1.08792Z" fill="#E02D71"/>
</g>
<defs>
<clipPath id="clip0_1:471">
<rect width="116" height="34" fill="white"/>
</clipPath>
</defs>
</svg>
